HIERARCHY
ROOT HipCenter
{
	OFFSET 0 0 0
	CHANNELS 6 Xposition Yposition Zposition Xrotation Yrotation Zrotation 
	JOINT HipCenter2
	{
		OFFSET 0 0 0
		CHANNELS 3 Xrotation Yrotation Zrotation 
		JOINT Spine
		{
			OFFSET 0 3.47 0
			CHANNELS 3 Xrotation Yrotation Zrotation 
			JOINT ShoulderCenter
			{
				OFFSET 0 17.95 0
				CHANNELS 3 Xrotation Yrotation Zrotation 
				JOINT CollarLeft
				{
					OFFSET 0 0 0
					CHANNELS 3 Xrotation Yrotation Zrotation 
					JOINT ShoulderLeft
					{
						OFFSET 13.84 0 0
						CHANNELS 3 Xrotation Yrotation Zrotation 
						JOINT ElbowLeft
						{
							OFFSET 14.14 0 0
							CHANNELS 3 Xrotation Yrotation Zrotation 
							JOINT WristLeft
							{
								OFFSET 19.16 0 0
								CHANNELS 3 Xrotation Yrotation Zrotation 
								End Site
								{
									OFFSET 6.39 0 0
								}
							}
						}
					}
				}
				JOINT Neck
				{
					OFFSET 0 0 0
					CHANNELS 3 Xrotation Yrotation Zrotation 
					JOINT Head
					{
						OFFSET 0 15.25 0
						CHANNELS 3 Xrotation Yrotation Zrotation 
						End Site
						{
							OFFSET 0 0 0
						}
					}
				}
				JOINT CollarRight
				{
					OFFSET 0 0 0
					CHANNELS 3 Xrotation Yrotation Zrotation 
					JOINT ShoulderRight
					{
						OFFSET -14.52 0 0
						CHANNELS 3 Xrotation Yrotation Zrotation 
						JOINT ElbowRight
						{
							OFFSET -14.64 0 0
							CHANNELS 3 Xrotation Yrotation Zrotation 
							JOINT WristRight
							{
								OFFSET -19.99 0 0
								CHANNELS 3 Xrotation Yrotation Zrotation 
								End Site
								{
									OFFSET -5.4 0 0
								}
							}
						}
					}
				}
			}
		}
	}
	JOINT HipLeft
	{
		OFFSET 7.81 0 0
		CHANNELS 3 Xrotation Yrotation Zrotation 
		JOINT KneeLeft
		{
			OFFSET 0 -38.71 0
			CHANNELS 3 Xrotation Yrotation Zrotation 
			JOINT AnkleLeft
			{
				OFFSET 0 -28.57 0
				CHANNELS 3 Xrotation Yrotation Zrotation 
				End Site
				{
					OFFSET 0 0 4.19
				}
			}
		}
	}
	JOINT HipRight
	{
		OFFSET -11.08 0 0
		CHANNELS 3 Xrotation Yrotation Zrotation 
		JOINT KneeRight
		{
			OFFSET 0 -35.92 0
			CHANNELS 3 Xrotation Yrotation Zrotation 
			JOINT AnkleRight
			{
				OFFSET 0 -26.52 0
				CHANNELS 3 Xrotation Yrotation Zrotation 
				End Site
				{
					OFFSET 0 0 8.36
				}
			}
		}
	}
}
MOTION
Frames: 35
Frame Time: 0.0333333
-13.1 107.91 204.03 0 18.1538 0 -15.7948 0 -0.7444 30 0 0 4.5823 0.6275 -0.4878 0 0 0 43.973 -39.3976 37.7898 0 0 68.0946 -2.4995 0 2.1806 9.0554 10.9018 -18.7994 0 0 0 0 0 0 4.0346 -19.875 -105.5353 0 0 -60.683 22.8974 0 -15.9681 -55.4989 -5.4901 13.0461 8.4623 -0.0346 -1.2877 0 0 0 24.9769 1.2747 4.0441 7.8237 -0.0234 -0.616 0 0 0 
-13.14 108.92 203.81 0 22.9752 0 -19.4875 0 2.9827 30 0 0 -0.6257 -0.0635 -0.7946 0 0 0 46.5872 -48.3029 36.0176 0 0 59.2522 6.7489 0 -18.4495 15.2618 12.5826 -17.1247 0 0 0 0 0 0 11.0418 -15.2099 -102.7048 0 0 -53.1219 17.1077 0 -27.469 -49.6249 -1.5341 4.2565 8.2797 -0.0361 -1.2031 0 0 0 28.6667 2.5368 7.2222 7.9771 -0.0265 -0.7508 0 0 0 
-13.44 109.1 203.56 0 21.9653 0 -19.8872 0 1.9217 30 0 0 -0.9672 -0.145 -0.869 0 0 0 49.4203 -53.7976 37.279 0 0 50.4538 8.6286 0 -14.7699 18.8644 11.3745 -13.7516 0 0 0 0 0 0 12.3051 -14.1773 -102.7567 0 0 -53.7198 17.6327 0 -26.8221 -48.502 -1.2283 3.5162 8.2327 -0.0354 -1.1459 0 0 0 28.319 2.3421 6.7341 7.9531 -0.0256 -0.7166 0 0 0 
-13.8 109.39 203.36 0 24.1005 0 -19.9265 0 2.8912 30 0 0 -1.3278 -0.1595 -1.0753 0 0 0 49.7197 -54.0295 37.6482 0 0 49.3913 9.9913 0 -13.9754 18.4281 10.8331 -13.3273 0 0 0 0 0 0 12.2153 -14.1063 -103.3265 0 0 -54.1557 17.7563 0 -25.9801 -47.816 -0.2859 0.8346 8.2122 -0.0348 -1.1161 0 0 0 28.4205 2.6707 7.6547 8.0052 -0.0292 -0.8378 0 0 0 
-14.72 109.59 202.55 0 25.6293 0 -19.2815 0 -5.9423 30 0 0 -3.578 -0.7574 3.4228 0 0 0 59.5768 -64.6136 45.3199 0 0 36.1362 13.5605 0 -10.9785 23.9944 2.5763 -2.6656 0 0 0 0 0 0 19.5181 -8.5134 -101.886 0 0 -59.8359 16.0003 0 -22.7322 -52.0122 1.0182 -2.6513 8.434 -0.0327 -1.1943 0 0 0 23.6415 4.389 14.448 7.8938 -0.0226 -0.6147 0 0 0 
-15.44 109.81 202.08 0 26.2056 0 -19.0485 0 -8.0615 30 0 0 -2.1874 -0.6148 0.3656 0 0 0 68.4356 -66.4511 56.0418 0 0 36.5658 18.2506 0 -15.1245 25.5417 -1.2812 1.2568 0 0 0 0 0 0 20.4748 -7.5787 -103.0321 0 0 -58.4923 8.4276 0 -23.7772 -51.8047 1.2142 -3.1786 8.4216 -0.0326 -1.1812 0 0 0 24.7405 4.4702 14.2242 7.9327 -0.0238 -0.6595 0 0 0 
-16 109.99 201.58 0 21.354 0 -18.4283 0 -9.7579 30 0 0 -2.0491 -0.5972 -0.1897 0 0 0 74.2105 -67.2394 62.8391 0 0 50.8334 -1.7721 0 -31.1598 24.2302 -3.6826 3.7749 0 0 0 0 0 0 16.3087 -10.1404 -107.0675 0 0 -56.1772 8.7528 0 -21.7848 -48.8475 0.0707 -0.2004 8.2285 -0.0317 -1.0263 0 0 0 24.512 2.9875 9.5974 7.8615 -0.0233 -0.6248 0 0 0 
-16.61 110.26 201.08 0 21.3141 0 -17.8554 0 -10.4242 30 0 0 -2.2586 -0.6658 -0.3993 0 0 0 77.7839 -67.4077 67.177 0 0 50.0941 1.9535 0 -31.1271 17.0826 1.5073 -1.9932 0 0 0 0 0 0 16.48 -9.7811 -108.3527 0 0 -55.1355 7.9421 0 -21.9216 -48.4422 0.1224 -0.3511 8.2242 -0.0321 -1.0346 0 0 0 26.0517 3.2452 9.9499 7.8949 -0.0216 -0.5869 0 0 0 
-17.17 110.52 200.63 0 21.8233 0 -16.7203 0 -10.8101 30 0 0 -2.6778 -0.7429 -0.6198 0 0 0 80.3722 -66.9837 70.8042 0 0 49.4533 4.8554 0 -31.256 16.381 1.3013 -1.7656 0 0 0 0 0 0 16.4401 -10.0399 -107.083 0 0 -56.6669 7.6923 0 -21.8076 -48.5216 0.0326 -0.0933 8.2398 -0.0329 -1.0706 0 0 0 25.3155 3.3996 10.652 7.8831 -0.0217 -0.5858 0 0 0 
-17.46 110.77 200.41 0 22.0828 0 -13.5249 0 -8.1835 30 0 0 -1.2404 -0.308 0.7012 0 0 0 77.8424 -68.5216 66.1462 0 0 42.8068 7.432 0 -30.0362 10.4521 3.4162 -5.7875 0 0 0 0 0 0 12.733 -13.6365 -103.5607 0 0 -65.6212 8.0228 0 -16.3736 -48.4549 0.0167 -0.0478 8.2416 -0.0332 -1.0806 0 0 0 24.532 3.3943 10.8909 7.8694 -0.0223 -0.5984 0 0 0 
-17.89 110.89 200.21 0 22.8674 0 -12.9874 0 -8.0657 30 0 0 -1.7163 -0.3897 0.1715 0 0 0 80.0253 -68.7733 68.5691 0 0 42.3789 7.6673 0 -30.8527 8.5622 1.9785 -3.629 0 0 0 0 0 0 14.1464 -13.6317 -98.7138 0 0 -74.8738 8.4168 0 -11.7454 -48.5375 0.2508 -0.7174 8.2589 -0.0334 -1.0991 0 0 0 24.5752 3.5012 11.2172 7.8803 -0.0229 -0.6199 0 0 0 
-18.19 111.07 199.97 0 23.8932 0 -12.1279 0 -6.468 30 0 0 -1.8976 -0.3649 0.2179 0 0 0 73.9231 -68.1598 61.5934 0 0 40.7236 8.7984 0 -29.2851 6.322 3.1651 -6.3682 0 0 0 0 0 0 14.1067 -13.7993 -98.1583 0 0 -76.7194 8.094 0 -10.8136 -48.9526 0.2998 -0.8476 8.2877 -0.034 -1.1358 0 0 0 23.9891 3.6564 11.9243 7.8832 -0.0241 -0.6516 0 0 0 
-18.34 111.39 199.99 0 23.7289 0 -11.6484 0 -4.5467 30 0 0 -1.7459 -0.2872 0.5286 0 0 0 65.6801 -66.7976 52.0352 0 0 40.658 10.1709 0 -27.5671 3.4811 3.3806 -7.7301 0 0 0 0 0 0 12.2632 -15.2038 -98.9155 0 0 -67.7834 7.8854 0 -18.974 -48.3035 0.2446 -0.7044 8.2673 -0.0343 -1.133 0 0 0 24.2926 3.4515 11.155 7.8859 -0.0245 -0.6641 0 0 0 
-18.55 111.48 199.87 0 24.117 0 -9.9539 0 -1.1459 30 0 0 -0.5031 -0.0719 1.5157 0 0 0 55.5929 -58.3347 44.2872 0 0 58.694 14.6969 0 -37.2839 -1.9482 4.3124 -12.9917 0 0 0 0 0 0 9.2694 -17.5531 -99.6658 0 0 -66.8745 7.6507 0 -19.4662 -48.1039 0.2325 -0.6733 8.2663 -0.0347 -1.1454 0 0 0 24.5641 3.3742 10.8162 7.8978 -0.0255 -0.6935 0 0 0 
-18.72 111.46 199.75 0 25.1991 0 -9.2955 0 -0.6565 30 0 0 -1.2227 -0.1788 1.0645 0 0 0 53.9909 -59.5805 40.7244 0 0 54.9686 14.2783 0 -34.1756 -3.3651 3.9611 -13.0184 0 0 0 0 0 0 8.786 -17.8317 -100.0935 0 0 -66.3404 7.4752 0 -19.7558 -48.8463 0.5034 -1.4276 8.2988 -0.0344 -1.1581 0 0 0 24.3505 3.4556 11.1484 7.9132 -0.0272 -0.7452 0 0 0 
-18.82 111.37 199.6 0 25.2447 0 -9.0125 0 -0.6429 30 0 0 -1.6863 -0.2482 0.7219 0 0 0 52.5682 -56.3528 40.8599 0 0 61.0734 15.2787 0 -37.1879 -3.9429 3.6936 -12.616 0 0 0 0 0 0 8.6033 -17.871 -100.4621 0 0 -65.6888 7.3515 0 -20.1557 -49.1092 0.5145 -1.4486 8.3073 -0.0342 -1.1585 0 0 0 24.2753 3.404 11.0085 7.9124 -0.0274 -0.7519 0 0 0 
-18.85 111.43 199.66 0 25.075 0 -9.1779 0 -0.5882 30 0 0 -1.9612 -0.2824 0.507 0 0 0 51.2912 -54.4664 40.1271 0 0 63.7985 15.6864 0 -37.7344 -3.8967 3.6978 -12.593 0 0 0 0 0 0 8.738 -17.7031 -100.6384 0 0 -65.2373 7.301 0 -20.4655 -48.407 0.53 -1.5217 8.2869 -0.0345 -1.1528 0 0 0 24.4539 3.3425 10.7513 7.9129 -0.0272 -0.7475 0 0 0 
-18.61 111.62 199.69 0 24.5834 0 -9.2607 0 -0.8085 30 0 0 -2.1619 -0.3144 0.3871 0 0 0 50.4776 -52.8964 39.9124 0 0 65.974 15.968 0 -38.0253 -3.7707 3.6617 -12.3751 0 0 0 0 0 0 8.8935 -17.5222 -100.803 0 0 -64.7073 7.2409 0 -20.8712 -48.0145 0.4548 -1.3203 8.2683 -0.0344 -1.1386 0 0 0 24.4578 3.1787 10.2259 7.9051 -0.0271 -0.7399 0 0 0 
-18.1 111.59 199.82 0 24.3142 0 -9.5949 0 -0.7008 30 0 0 -2.4562 -0.3329 0.4102 0 0 0 49.6256 -51.2411 39.6651 0 0 67.7725 16.0735 0 -37.5581 -3.3511 3.941 -12.9435 0 0 0 0 0 0 10.4734 -16.8949 -98.4052 0 0 -73.2524 7.4079 0 -14.6677 -47.9582 0.3623 -1.0534 8.261 -0.0344 -1.1316 0 0 0 24.4935 3.0868 9.9206 7.9029 -0.0271 -0.7389 0 0 0 
-18.15 111.62 199.84 0 24.1858 0 -10.2244 0 -0.5899 30 0 0 -2.8647 -0.359 0.3595 0 0 0 48.823 -48.3977 40.4921 0 0 71.2421 16.1771 0 -37.6592 -2.4616 4.3371 -13.4572 0 0 0 0 0 0 11.0492 -16.4702 -98.1399 0 0 -72.8986 7.4445 0 -15.2146 -48.0491 0.3035 -0.88 8.2602 -0.0343 -1.1279 0 0 0 24.6555 3.0061 9.6147 7.9055 -0.0272 -0.7433 0 0 0 
-17.95 111.39 200.01 0 24.1589 0 -10.7708 0 -0.3391 30 0 0 -3.1397 -0.3639 0.3087 0 0 0 48.1517 -46.1486 41.1096 0 0 73.8806 16.3069 0 -37.4545 -1.6599 4.8142 -14.2072 0 0 0 0 0 0 11.3662 -16.2298 -98.0113 0 0 -72.3797 7.4971 0 -15.7838 -48.1238 0.2789 -0.8072 8.2599 -0.0342 -1.1247 0 0 0 24.869 2.9417 9.3484 7.9112 -0.0274 -0.7519 0 0 0 
-17.55 111.35 200.25 0 24.3433 0 -12.0533 0 -0.6284 30 0 0 -3.9118 -0.3817 0.0021 0 0 0 48.5908 -44.2666 43.8406 0 0 76.355 15.9187 0 -37.7752 0.8183 5.8026 -14.8901 0 0 0 0 0 0 12.6367 -14.9929 -98.4914 0 0 -70.7924 7.4332 0 -16.872 -48.1462 0.4247 -1.2283 8.2636 -0.034 -1.1207 0 0 0 24.6909 3.0364 9.7005 7.9113 -0.0274 -0.7514 0 0 0 
-17.14 111.43 200.65 0 24.5415 0 -12.6195 0 -0.2705 30 0 0 -3.9952 -0.3258 -0.011 0 0 0 47.9791 -42.6961 44.0716 0 0 78.1184 15.8474 0 -37.4262 1.7352 6.4953 -15.8415 0 0 0 0 0 0 13.3716 -14.4169 -98.2488 0 0 -71.9601 7.3894 0 -15.9926 -48.2669 0.5251 -1.5135 8.2723 -0.0339 -1.1235 0 0 0 24.0316 3.3304 10.8531 7.9023 -0.0267 -0.7291 0 0 0 
-16.7 111.54 201.03 0 25.1285 0 -12.1867 0 4.4855 30 0 0 -2.9638 0.1052 2.0362 0 0 0 42.6187 -38.0661 35.5419 0 0 79.8926 14.039 0 -33.5223 -3.9073 7.5101 -24.3724 0 0 0 0 0 0 6.1339 -17.4592 -107.998 0 0 -58.1832 6.7711 0 -20.7215 -49.6182 0.6467 -1.7954 8.317 -0.0333 -1.1338 0 0 0 22.8129 3.8179 12.9167 7.8919 -0.0262 -0.7104 0 0 0 
-16.34 111.52 201.36 0 23.0886 0 -15.7304 0 -4.2925 30 0 0 -6.9167 -0.7704 -3.9717 0 0 0 54.7211 -50.845 49.5037 0 0 68.7355 12.4695 0 -34.5067 9.6237 5.4591 -9.4979 0 0 0 0 0 0 14.0116 -11.9253 -106.7225 0 0 -61.3583 6.3546 0 -18.0853 -48.6 0.8937 -2.5515 8.2535 -0.0314 -1.0307 0 0 0 22.8484 3.6653 12.3899 7.8636 -0.0237 -0.635 0 0 0 
-15.79 111.46 201.71 0 24.0242 0 -13.6331 0 1.8951 30 0 0 -3.5003 0.0487 -0.3352 0 0 0 46.5879 -42.5578 41.0421 0 0 77.9192 13.0903 0 -36.0717 1.3417 8.2919 -20.2592 0 0 0 0 0 0 8.2624 -15.9989 -107.5984 0 0 -71.9474 11.615 0 -6.7565 -48.8891 1.2224 -3.4617 8.2673 -0.0311 -1.0284 0 0 0 23.2137 3.7493 12.5257 7.8898 -0.0253 -0.6866 0 0 0 
-15.46 111.62 202.15 0 17.3022 0 -20.1103 0 -9.2866 30 0 0 -6.8474 -1.5213 -6.0578 0 0 0 68.7607 -60.0362 62.6694 0 0 59.6956 9.5218 0 -32.5473 18.3523 2.2996 -2.903 0 0 0 0 0 0 18.6296 -8.3303 -107.6282 0 0 -70.065 15.0911 0 -7.469 -43.263 1.6105 -5.3879 8.0184 -0.0245 -0.7068 0 0 0 24.3952 3.0166 9.7254 7.8309 -0.0173 -0.4559 0 0 0 
-14.99 111.33 202.39 0 17.0443 0 -21.1926 0 -7.3615 30 0 0 -4.8224 -1.1476 -4.2239 0 0 0 69.0702 -61.0561 62.0682 0 0 42.1164 15.8255 0 -11.0151 20.6056 4.1409 -4.8147 0 0 0 0 0 0 18.1672 -8.8153 -106.7156 0 0 -68.8542 13.276 0 -9.3236 -41.7204 2.1181 -7.4458 7.9744 -0.0226 -0.6382 0 0 0 25.0357 3.2504 10.2728 7.8488 -0.0164 -0.4378 0 0 0 
-14.81 111.23 202.78 0 21.1658 0 -22.3527 0 -6.8343 30 0 0 -4.1768 -1.179 -3.6361 0 0 0 70.5629 -62.0178 63.167 0 0 42.0236 15.6199 0 -11.4699 23.7877 4.623 -4.8063 0 0 0 0 0 0 24.64 -4.4921 -100.0801 0 0 -67.8212 8.6463 0 -17.759 -40.7254 2.3455 -8.5223 8.0018 -0.027 -0.7729 0 0 0 26.5771 4.3091 12.9884 7.9481 -0.0199 -0.5551 0 0 0 
-14.48 110.88 203.04 0 23.0035 0 -23.9146 0 -4.9319 30 0 0 -3.4237 -0.904 -2.7273 0 0 0 66.1081 -67.2141 52.2543 0 0 31.6149 12.3677 0 -2.8672 24.5745 6.9298 -6.9816 0 0 0 0 0 0 24.7072 -4.586 -98.1948 0 0 -66.3486 9.5635 0 -20.4895 -40.7405 2.2532 -8.1839 8.035 -0.0298 -0.8698 0 0 0 27.9577 4.7997 13.8957 8.0073 -0.0203 -0.5839 0 0 0 
-14.24 110.64 203.28 0 20.5221 0 -24.7221 0 -3.5559 30 0 0 -4.1268 -0.6418 -1.2969 0 0 0 59.3843 -59.0552 49.6802 0 0 45.3807 12.1698 0 -8.4286 20.192 10.8457 -12.5563 0 0 0 0 0 0 23.7135 -5.5127 -97.5177 0 0 -64.2287 10.4081 0 -22.8179 -42.9369 0.8534 -2.8863 8.113 -0.0338 -1.0244 0 0 0 27.7337 4.4331 12.9239 7.9331 -0.0123 -0.3397 0 0 0 
-14.06 110.25 203.58 0 17.7555 0 -25.1113 0 -2.008 30 0 0 -3.8741 -0.643 -2.4305 0 0 0 60.7553 -63.9965 47.5147 0 0 34.1319 11.0372 0 -2.3679 21.2652 13.108 -14.4917 0 0 0 0 0 0 23.0441 -6.1576 -96.9818 0 0 -62.4864 10.7582 0 -24.9063 -39.0854 0.2117 -0.816 7.9607 -0.0332 -0.9335 0 0 0 28.2944 3.6712 10.5472 7.9167 -0.0111 -0.3047 0 0 0 
-13.81 110.16 203.98 0 17.9201 0 -24.4894 0 -0.2841 30 0 0 -3.9791 -0.5988 -1.4864 0 0 0 57.5397 -60.2546 45.7883 0 0 40.6593 10.8504 0 -5.3112 19.2519 15.0036 -17.5799 0 0 0 0 0 0 21.0299 -7.9676 -96.7986 0 0 -61.6485 12.0137 0 -25.5565 -39.5378 0.1711 -0.6489 7.9696 -0.0331 -0.9342 0 0 0 28.6009 3.6296 10.3395 7.9266 -0.0119 -0.3297 0 0 0 
-13.76 109.5 204.02 0 18.4985 0 -25.9572 0 -1.0546 30 0 0 -3.4092 -0.6377 -0.9638 0 0 0 54.9208 -59.8792 41.98 0 0 76.6396 -1.7849 0 -44.3274 20.0417 16.2525 -18.42 0 0 0 0 0 0 22.1154 -7.0546 -96.3785 0 0 -61.6911 14.0508 0 -25.3973 -41.0761 -2.2767 8.1756 8.0107 -0.0385 -1.1072 0 0 0 24.0466 1.7856 5.8275 7.8118 -0.0219 -0.5735 0 0 0 
-13.72 109.19 204.28 0 17.6744 0 -25.4416 0 0.2494 30 0 0 -3.5501 -0.5477 -0.6855 0 0 0 51.5046 -55.3844 39.7823 0 0 56.5997 6.9987 0 -23.9987 20.1916 16.7239 -18.8099 0 0 0 0 0 0 20.8939 -8.1946 -96.0541 0 0 -63.3427 15.603 0 -23.842 -41.276 -3.0708 10.9397 8.0187 -0.0395 -1.1431 0 0 0 24.4942 1.6369 5.2692 7.8107 -0.0206 -0.5388 0 0 0 
